/* XPM */
static char *_c96ecfedf9b4072dcde7f4322a75a97aNjvBXiLRflz6ImM[] = {
/* columns rows colors chars-per-pixel */
"64 64 169 2 ",
"   c #161A1C",
".  c #191C1F",
"X  c #1A1E21",
"o  c #1D2225",
"O  c #1F2428",
"+  c #202527",
"@  c #21262A",
"#  c #242A2E",
"$  c #282D2F",
"%  c #262D31",
"&  c #292E32",
"*  c #273033",
"=  c #2B3235",
"-  c #2E3438",
";  c #2F3439",
":  c #2F343A",
">  c #2F353A",
",  c #2F373A",
"<  c #2F373B",
"1  c #2D3439",
"2  c #2E3539",
"3  c #2E383A",
"4  c #303539",
"5  c #30363A",
"6  c #31363A",
"7  c #31373B",
"8  c #30363C",
"9  c #31363C",
"0  c #32373C",
"q  c #32373D",
"w  c #31363B",
"e  c #30383C",
"r  c #30383D",
"t  c #31383D",
"y  c #33383C",
"u  c #32393D",
"i  c #31393E",
"p  c #32383E",
"a  c #33383E",
"s  c #32393E",
"d  c #33393E",
"f  c #33393F",
"g  c #333A3E",
"h  c #323A3F",
"j  c #34393D",
"k  c #34393F",
"l  c #343B3F",
"z  c #32393E",
"x  c #333B40",
"c  c #353A40",
"v  c #343B41",
"b  c #353B41",
"n  c #363B41",
"m  c #353C40",
"M  c #353C41",
"N  c #363D40",
"B  c #353D42",
"V  c #363C42",
"C  c #373C42",
"Z  c #363D42",
"A  c #373D42",
"S  c #373D43",
"D  c #373E42",
"F  c #363E43",
"G  c #373F43",
"H  c #373E44",
"J  c #373F44",
"K  c #353C42",
"L  c #383D42",
"P  c #383D43",
"I  c #383E43",
"U  c #383F43",
"Y  c #393D44",
"T  c #383E44",
"R  c #393E44",
"E  c #383F44",
"W  c #393F44",
"Q  c #383F45",
"!  c #393F45",
"~  c #3A3F45",
"^  c #393E44",
"/  c #374144",
"(  c #384043",
")  c #384044",
"_  c #394044",
"`  c #394144",
"'  c #384045",
"]  c #394045",
"[  c #384145",
"{  c #394145",
"}  c #3A4044",
"|  c #3A4045",
" . c #3A4145",
".. c #3A4245",
"X. c #3A4345",
"o. c #394046",
"O. c #384146",
"+. c #394146",
"@. c #3B4046",
"#. c #3A4146",
"$. c #3B4147",
"%. c #384246",
"&. c #394246",
"*. c #394346",
"=. c #384247",
"-. c #394247",
";. c #394347",
":. c #3A4246",
">. c #3A4247",
",. c #3B4247",
"<. c #3A4347",
"1. c #3C4246",
"2. c #3C4247",
"3. c #3E4347",
"4. c #384446",
"5. c #394447",
"6. c #3A4447",
"7. c #3A4547",
"8. c #3B4547",
"9. c #3A4647",
"0. c #394246",
"q. c #374548",
"w. c #3A4248",
"e. c #3A4348",
"r. c #3B4348",
"t. c #3B4349",
"y. c #3C4348",
"u. c #3D4348",
"i. c #3A4448",
"p. c #3B4448",
"a. c #3A4548",
"s. c #3A4449",
"d. c #3B4449",
"f. c #3B4549",
"g. c #3A4648",
"h. c #3B4648",
"j. c #3B4649",
"k. c #3C4549",
"l. c #3C454A",
"z. c #3D454A",
"x. c #3D464B",
"c. c #3D474B",
"v. c #3F474C",
"b. c #3B4549",
"n. c #3E484B",
"m. c #3E484D",
"M. c #3F484D",
"N. c #3F484E",
"B. c #3C494B",
"V. c #40474B",
"C. c #40484D",
"Z. c #40494E",
"A. c #41494E",
"S. c #414B4F",
"D. c #414A4E",
"F. c #454C52",
"G. c #454D52",
"H. c #444D52",
"J. c #484F55",
"K. c #475155",
"L. c #485156",
"P. c #4C555A",
"I. c #4E595D",
"U. c #50575E",
"Y. c #51595E",
"T. c #535D62",
"R. c #576166",
"E. c #586266",
"W. c #5A646B",
/* pixels */
"C C 1.} v.} } } } R R P P P P C c c c c c C P h # % = = = = = = = = * * * & = = = = 1 1 Z.} ( } } } r.x.d.d.d.M.1 M.d.7.7.7.7.} ",
"C P 1.1.Z.r.r.} } } } R R P P R C c c l h C P & # = = = = = = = = = = * * & = = = & & % Z.} } } C C } d.d.d.d.M.1 x.} } d.7.} } ",
"P P C 5 M.d.d.} } } } R R R H } P c l c 9 c P & $ = = = = = = = * * * * % & & & & & & + Z.r.C C C C H } 7.7.d.x.1 u.} } r.} } } ",
"P R C = x.d.d.d.} } } } } R R R P C R c 9 c R % # & = = = = = = * * * * % & & & & & & + Z.r.x h x C C H } } } } & R R } } } } R ",
"R R l # } d.d.d.7.} } } R P R R R P 9 9 c P } # & 1 # * % % % % % % % % % % & & & = & + } r.x h h h x c C C C P & C C C R R R R ",
"R R C # } 7.7.7.7.H P P P C l 9 5 = = l P R x.% @ 4.# # # # # # % % % % $ % % & = = = + 5 } x 1 1 h h h c C c c + 1 l c C P R R ",
"P R } # } Z.x.n.d.C c h 9 = & & = = = h C R F.# o x.# @ O O O # # # # # $ % % = 1 1 5 # = C h 5 h h h h l c c R + = c c c C P P ",
"R R F.% R 1 % # % # @ + O O O + # % % & 1 c x.= + } 5 & $ # O @ # @ # # # # # # & % @ O # @ + + + # & = % % & = o = 1 & & & & 1 ",
"& = & $ & O o O + # # $ # $ O X # # # & & # # # @ = & # @ O + # & + o O O o O o o X X . o o o o o o o o o o . X   X o o o o # % ",
"L.K.K.P.P.P.P.I.I.I.I.P.Y.P.F.1 T.L.F.J.H.M.x.M.v.v.Z.H.F.L.L.L.P.I.% l R.T.Y.P.L.P.I.T.T.T.T.T.T.Y.Y.L.Z.r.C 1 = & = = = 1.T.P.",
"M.M.M.Z.S.H.v.} } R } R P.T.L.} I.7.} d.d.d.d.d.x.x.v.x.x.Z.M.Z.F.P.= h Y.K.H.H.m.m.m.M.Z.Z.v.M.Z.H.H.v.r.C < = & % & = 9 Z.F.x.",
"B.B.B.B.7.4.C l l l l c R J.P.x.J.4./ 4.d.B.B.M.M.M.M.M.M.Z.Z.Z.F.J.5 5 J.d.B.B.B.B.B.d.d.} 4.C C C C C H H H C 1 & & & = R x.7.",
"B.n.B.d.4.4.C l l l l c c u.L.} H.4./ 4.4.d.B.d.v.M.M.M.M.Z.H.F.F.F.l h H.B.B.B.B.B.B.d.d.d.4.C 4.C C C C 4.4.4.} x 1 = & 1 c 7.",
"B.n.B.4.4.x x h h l c c C x.K.C x.H } r.4.d.d.x.v.M.M.M.v.H.F.F.x.h & P M.B.B.B.d.d.d.d.d.d.4.4.4./ C C C 4.4.4.7.C C C = & l } ",
"B.B.4./ x x x h h l c c c u.H.1 } 1 1 } } 4.r.x.M.M.M.M.M.H.J.u.& = = h } 7.B.B.4.B.d.d.4.d.} } } } 4.C H 4.4.4.} x.d.4.= & h } ",
"d.4./ x x x x h h c c c c } } = h 1 1 1 C } C r.v.M.M.M.H.F.K.# 1 4.1 = u.} B.B.4.4.q.d.7.d.d.} } } 4.H 4.4./ / 4.4.} / & & c } ",
"4./ l l h h h l 9 5 9 l c 5 # & < < 1 < < x x } r.x.x.v.Z.F.l 1 C r.1 & } H.d.B.d.7.7.} 7.7.7.} } C C H 4.4.4.H 4.} } } 1 % C C ",
"h 4./ / } } } = # # # % = # + # Z.v.H h 1 1 = 1 h h h 4.x.} # l / x.5 # C l x.d.7.d.d.} d.x.x.r.r.r.H C } } } } } C C 5 & % H C ",
"# & = 1 h 5 = # # + + + + + + # 5 1 & + + O o + + + # % 1 = & h h 1 O + & # # % % & % & = = % # # # # # % 1 1 1 = # @ O o o # # ",
"C } 1.l = $ % # + # 1 1 & * & C } } C 5 $ = R C P ( } } } P } x.x.C l P } } ( l l # o = & & & % % & = % o # # + . h } l 1 h l h ",
"x.Z.F.Y.Y.U.Y.T.F.Z.E.P.F.P C x.x.x.} C 9 x.T.P.J.H.Z.n.d.d.x.S.J.F.J.L.P.L.L.F.P.Z.& R } C C x h h x 1 1 l h h + L.T.H.7.d.d.} ",
"l c c C P C P x.H.x.L.C 9 = r.C } } 4.C 9 x.P.r.} C < 4.C C H r.h 5 9 l x c c P x.x.= c = & & & % = = = C h y x = L.L.d.d.d.d.H ",
"l l l c c c c C V.= 5 & 1 C } H } } } C 1 } L.} } H 4.4.x 4.} C 1 1 9 h h h h C } x.= c % & & % & = % C C h 1 h = L.J.x.d.r.d.H ",
"5 h l c c c c c P + } L.x.C C 4.} } } l = h H.} 4.C h < x 1 1 1 1 1 1 1 < h h c C x.= h % & & & = * & C h 1 1 3 = M.M.x.d.d.x.C ",
"9 l c c c c c c 9 = F.L.r.C C } } } } h & 5 M.H C h < 1 1 = = = 1 1 1 1 1 h h c c C = 1 % & % * = # = h 3 1 1 1 = l } x.r.x.} c ",
"h l c c c c c c 1 & V.Z.H C H } } } } 1 % = } h < < 1 = = = = = 1 1 1 1 1 h h c c h & = & % % = * & < 1 1 3 3 1 = 1 C d.d.u.C c ",
"h l l c c c c R 1 # } r.C C H } } r.} 1 % & h h 1 1 1 = * = = 1 1 1 1 y < h h C h = # = & % & * # h 3 = 3 3 3 * % & C } r.} C c ",
"l l l l c c c } 1 + } } h C } d.d.d.x.= % # h y 1 1 = = = 1 1 < < < h x x C x R 5 & O = & & & # = 3 1 = 1 h = # + # C R C C c c ",
"l h 9 h h l c V.= O c Z.4.C C d.M.H.C & & # } h 5 1 1 1 1 5 h C C C H } x.x.} u.= & o = = % % + 5 = = 1 C 1 + O O & C C l 5 1 1 ",
"& & % & % & % & = o l C % @ @ # % & # % & & l & % # # # # % & & % % % % $ = = 9 & # X o O o o o + O + + $ o o O X + O o o + + + ",
"1 & # o o # % % # # 5 & # + @ # # # # % # # # + O . . X O + + + $ % & & & = = & = = * = 1 1 1 & + X + # # & & & % & & & o o + # ",
"L.L.P.l & v.C < 1 h x C 4.4.} d.x.d.d.r.d.} 4.7.1 1 T.R.T.T.T.T.I.P.P.P.P.L.P.P.I.I.I.I.I.I.P.P.T.( P.L.K.H.H.F.L.L.L.K.h = C x.",
"c c x.Z.5 r.= = = 3 3 1 3 1 1 = = = 1 1 & # # 5 = H I.m.M.d.} 4.4.4.4.} } } r.H C C C C C P } Z.Z.x P.F.H C C c C R } 1.P 1 5 h ",
"c c c x.c h = = 1 3 3 3 3 3 = = = 1 = % $ # # & & C L.7.d.} H C C C C H H C h c c C C C l C l 3.x.C P.r.C C C h c c c C R P c h ",
"c c c P C h = = 1 1 1 = = = = = = = % % $ # # # # h x.H H C C C C x h < < h h h C h h h l h l ( } l L.} C l h h c c l l c P c l ",
"c c c l h h = 1 1 1 = = = = * * * % % % $ # # # # # 1 1 h h h C C h < < < h h h l h h h h h y l P 1 V.} h h h l l c l l c c c c ",
"c c c 5 = 1 = 1 = = = = = * * * % % % $ $ # # # # # & $ % & % = h h h h h h h h h y y y h y y y 5 # l C h h h l l l c l c c c c ",
"P C C h # = 1 1 1 = = = = * * % % % % $ $ # # # + # } v.} x.H # = h h h h h h y y 3 3 h h y 1 1 = + = l h h x l l l l l l c c c ",
"} } R h + = = 1 1 = = = = * % & % $ $ $ $ # # # # @ R x.x.M.F.x.* 1 h h h y y 1 3 3 3 h 3 1 1 1 & O & h h h h l l l l l c c P C ",
"} } } h o # & = = = = = = = * & # # # # # # # # # O 9 } } r.x.x.V.& & h h y y 1 3 3 1 1 1 1 1 = = o & 1 y h 1 l c l l l c P R C ",
"C R } 1 o % = = = = * % % % % # $ # % # # # # 1 # o & = = 5 l l l 5 + = y 1 1 = = * % # # # # % l o & 1 1 1 1 1 5 1 1 1 h l C C ",
"o o o X X X o X X . . .       . . . X o o o O X .   X o + + + + o o X . X o X X X o o o X X o o + . o O o o O O O o o o O O O O ",
"3.3.x.x.V.V.n.Z.Z.Z.Z.V.1.} $ o } V.V.Z.Z.H.x.h l l C C C P 5 1.1.V.Z.Z.x.= X + % # # # # * = 1 y 5 1 o 5 Z.Z.Z.v.x.u.x.v.x.x.x.",
"Z.F.K.L.P.P.P.L.L.L.L.K.H.L.P 1 W.T.L.F.H.Z.M.v.Z.Z.Z.F.F.h } K.F.F.H.F.T.L.5 C x.1 = = = = = = = C C + x.I.M.M.x.n.M.Z.S.Z.M.Z.",
"} / / 4.4.7.d.d.d.d.B.B.B.H.F.h T.C h C } } x.v.Z.Z.H.F.C } L.H.M.Z.x.x.K.I.C h } = = = = % % % # $ 5 # Z.x.C 4.7.7.d.d.d.d.7.} ",
"} 4./ / } } 4.H 4.} d.B.B.M.F.C I.h h C } } r.M.Z.H.H.x.1 L.K.H.Z.M.x.B.B.L.x.< C = = = = * % % # + # % x.d.4.4.4.7.d.B.B.B.d.7.",
"} } 4./ C C C C H 4.7.B.B.m.F.C P.< 1 h C } } v.Z.Z.H.} C I.J.F.H.M.B.d.7.H.v.1 h = = = = * % % # + + # C x x / 7.7.7.7.7.7.7.4.",
"} } 4.4.C C C C H 4.4.d.B.M.M.h F.< 1 y l C C r.M.Z.Z.} h P.H.M.M.B.B.4.4.d.C 1 1 = = * & % % % # O O @ 1 h 3 h / 7.7.4.4.7.} 4.",
"} } 4./ < C C C H H / 7.7.n.x.5 F.9 5 5 h l C ( x.x.Z.} = F.Z.B.B.B.B.4./ / = & & % % % % % % # # O + @ = 1 1 = % Z.n.7.7.7.} 4.",
"} } 4./ x } C C C H } 7.7.d.H & x.h 5 1 h C C H } } x.} & } n.n.B.B.d./ C l $ % = & % # # # # # # @ + + % 1 1 % % # y l 7.7.7.4.",
"} 4./ / 4.H C H H } } } 7.} h & R c 5 1 h C C C C / C C & ( d.d.d.7.4.x h y # & 1 & % # # # # # # @ @ + # 1 1 = % # # # h 7.} } ",
"C C C 4.4.4.4.R } } } } H = # # c D.C h h C C c C C C C = C 4.l < 3 9 1 5 } # = R = & % % # # # @ # % + + = 1 = * & $ # # C / / ",
"= = = = & = 1 = = = 1 c = + + + 9 1 % # # # # # # # @ # # % % # # # # # # = + & h # # @ @ @ @ + o o O o o + # # # + @ # + & 1 = ",
"# $ & & & * $ X O $ % # + O X o + + @ + @ # % % $ # # # # O & & = 1 = = & % $ # + # # # # # # + o & & # # % & = = = * = = = 1 1 ",
"} x.M.L.T.T.Y.o Z.P.P.Z.} C 1 & = 1 h C R Z.F.F.Z.F.F.L.F.& Z.T.R.E.T.L.J.Z.Z.M.4.Z.H.F.F.F.F.5 h T.I.L.F.J.K.K.K.F.F.F.F.F.F.Z.",
"/ } d.d.M.T.T.l P.E.S.d.d.r.x.v.x.} } } v.Z.Z.V.x.x.x.J.P.1 } Y.V.} } } r.d.n.n.n.n.n.B.d.d.x.C } P.C h } d.d.B.d.d.} C h h h C ",
"4.7.d.d.x.K.P.C K.P.B.B.7.4.C R R R H C C C H } R C c C L.1 V.I.C 4.} } r.d.B.B.B.B.B.B.d.4.} 1 1.Z.h h / n.x.7.} } } C h h y h ",
"/ 7.7.d.B.H.K.h K.P.B.B.7./ l l h h h h h h c P R P C C J.5 F.I.l C H } r.d.B.B.B.B.B.B.d.4.H & h Z.h h l C } } 4.4.C C c h h y ",
"C / } d.B.M.H.5 H.K.B.d.4.l h h 9 c c < 1 1 9 c C P P P H.1 v.L.l c H 4.r.d.B.B.B.B.B.d.d.4.C % h } h h h h h C C C C C c x h h ",
"c c C d.B.n.d.1 } H.B.} x h x x C x.c 1 1 1 9 h c P P P x.1 P V.9 c C 4.r.d.d.B.B.d.d.d.} C h # 1 l 5 h < < h h h h c c h h h h ",
"c c H d.B.n.4.& C m.4.x h x x h 1 & & 1 1 1 h h c P R } x.1 l R 5 c c C } d.d.d.d.d.x.} C c 9 # # 1 = 1 1 1 1 < < < h h h h h h ",
"c R } d.d.v.M.& 5 H.C h h h x % # & & = 1 9 h c C R } r.x.5 5 h 1 c c H 4.r.r.r.r.} H C c c 9 + + = = = = 1 1 1 1 1 1 < h h y h ",
"c } r.x.M.v.H.# = H.h 1 1 h 1 + % & & = 1 9 h R } x.x.C H = % 9 1 h c C } } } } } C C C c c 9 + + l h = 1 1 1 1 1 1 1 < h h 5 5 ",
"# @ + + O o O O & & # # % % O # & & & & = = & # + O + + + . . + @ # # # & & & = = = = & % # @ o o @ = & @ + @ @ # # & = = & # # "
};
